#Comment line ignore any data following # character 
#Hierarchical Translation and Rotation (.htr) file 
[Header]	
#Header keywords are followed by a single value 
FileType HTR		#Single word string
DataType HTRS		#Translation followed by rotation and scale data
FileVersion 1		#integer
NumSegments 84		#integer
NumFrames 2		#integer
DataFrameRate 30		#integer, data frame rate in this file
EulerRotationOrder ZYX
CalibrationUnits mm
RotationUnits Degrees
GlobalAxisofGravity Y
BoneLengthAxis Y
ScaleFactor 1.00
[SegmentNames&Hierarchy]
#CHILD	PARENT
MASTER GLOBAL
root MASTER
chest root
L_mid_tent01 root
R_mid_tent01 root
spine01 root
Bip01_Neck chest
L_humerus chest
R_humerus chest
weapon_bone chest
Bip01_Head Bip01_Neck
eye_left_bone Bip01_Head
eye_right_bone Bip01_Head
L_forearm L_humerus
L_front_hand L_forearm
L_weapon_bone L_forearm
L_front_hand01_01 L_front_hand
L_front_hand02_01 L_front_hand
L_front_hand03_01 L_front_hand
L_front_hand01_02 L_front_hand01_01
L_front_hand02_02 L_front_hand02_01
L_front_hand03_02 L_front_hand03_01
R_forearm R_humerus
R_front_hand R_forearm
R_weapon_bone R_forearm
R_front_hand01_01 R_front_hand
R_front_hand02_01 R_front_hand
R_front_hand03_01 R_front_hand
R_front_hand01_02 R_front_hand01_01
R_front_hand02_02 R_front_hand02_01
R_front_hand03_02 R_front_hand03_01
null_rope01_connect L_mid_tent01
Rope1_Seg01 null_rope01_connect
Rope1_Seg02 Rope1_Seg01
Rope1_Seg03 Rope1_Seg02
Rope1_Seg04 Rope1_Seg03
Rope1_Seg05 Rope1_Seg04
Rope1_Seg06 Rope1_Seg05
Rope1_Seg07 Rope1_Seg06
Rope1_Seg09 Rope1_Seg07
L_mid_hand01 Rope1_Seg09
L_mid_hand02 Rope1_Seg09
L_mid_hand03 Rope1_Seg09
null_rope02_connect R_mid_tent01
Rope2_Seg01 null_rope02_connect
Rope2_Seg02 Rope2_Seg01
Rope2_Seg03 Rope2_Seg02
Rope2_Seg04 Rope2_Seg03
Rope2_Seg05 Rope2_Seg04
Rope2_Seg06 Rope2_Seg05
Rope2_Seg07 Rope2_Seg06
Rope2_Seg09 Rope2_Seg07
R_mid_hand01 Rope2_Seg09
R_mid_hand02 Rope2_Seg09
R_mid_hand03 Rope2_Seg09
spine02 spine01
spine03 spine02
pelvis spine03
null_rope03_connect pelvis
null_rope04_connect pelvis
Rope3_Seg01 null_rope03_connect
Rope3_Seg02 Rope3_Seg01
Rope3_Seg03 Rope3_Seg02
Rope3_Seg04 Rope3_Seg03
Rope3_Seg05 Rope3_Seg04
Rope3_Seg06 Rope3_Seg05
Rope3_Seg07 Rope3_Seg06
Rope3_Seg08 Rope3_Seg07
Rope3_Seg09 Rope3_Seg08
R_rear_hand01 Rope3_Seg09
R_rear_hand02 Rope3_Seg09
R_rear_hand03 Rope3_Seg09
Rope4_Seg01 null_rope04_connect
Rope4_Seg02 Rope4_Seg01
Rope4_Seg03 Rope4_Seg02
Rope4_Seg04 Rope4_Seg03
Rope4_Seg05 Rope4_Seg04
Rope4_Seg06 Rope4_Seg05
Rope4_Seg07 Rope4_Seg06
Rope4_Seg08 Rope4_Seg07
Rope4_Seg09 Rope4_Seg08
L_rear_hand01 Rope4_Seg09
L_rear_hand02 Rope4_Seg09
L_rear_hand03 Rope4_Seg09
[BasePosition]
#SegmentName Tx, Ty, Tz, Rx, Ry, Rz, BoneLength
MASTER 0.000000 0.000000 0.000000 -90.000000 0.000000 0.000000 10.000000 
root 0.000000 0.000000 0.000000 0.000000 0.000000 0.000000 10.000000 
chest 0.000000 0.000000 0.000000 0.000000 0.000000 0.000000 10.000000 
L_mid_tent01 0.000000 0.000000 0.000000 0.000000 0.000000 0.000000 10.000000 
R_mid_tent01 0.000000 0.000000 0.000000 0.000000 0.000000 0.000000 10.000000 
spine01 0.000000 0.000000 0.000000 0.000000 0.000000 0.000000 10.000000 
Bip01_Neck 0.000000 0.000000 0.000000 0.000000 0.000000 0.000000 10.000000 
L_humerus 0.000000 0.000000 0.000000 0.000000 0.000000 0.000000 10.000000 
R_humerus 0.000000 0.000000 0.000000 0.000000 0.000000 0.000000 10.000000 
weapon_bone 0.000000 0.000000 0.000000 0.000000 0.000000 0.000000 10.000000 
Bip01_Head 0.000000 0.000000 0.000000 0.000000 0.000000 0.000000 10.000000 
eye_left_bone 0.000000 0.000000 0.000000 0.000000 0.000000 0.000000 10.000000 
eye_right_bone 0.000000 0.000000 0.000000 0.000000 0.000000 0.000000 10.000000 
L_forearm 0.000000 0.000000 0.000000 0.000000 0.000000 0.000000 10.000000 
L_front_hand 0.000000 0.000000 0.000000 0.000000 0.000000 0.000000 10.000000 
L_weapon_bone 0.000000 0.000000 0.000000 0.000000 0.000000 0.000000 10.000000 
L_front_hand01_01 0.000000 0.000000 0.000000 0.000000 0.000000 0.000000 10.000000 
L_front_hand02_01 0.000000 0.000000 0.000000 0.000000 0.000000 0.000000 10.000000 
L_front_hand03_01 0.000000 0.000000 0.000000 0.000000 0.000000 0.000000 10.000000 
L_front_hand01_02 0.000000 0.000000 0.000000 0.000000 0.000000 0.000000 10.000000 
L_front_hand02_02 0.000000 0.000000 0.000000 0.000000 0.000000 0.000000 10.000000 
L_front_hand03_02 0.000000 0.000000 0.000000 0.000000 0.000000 0.000000 10.000000 
R_forearm 0.000000 0.000000 0.000000 0.000000 0.000000 0.000000 10.000000 
R_front_hand 0.000000 0.000000 0.000000 0.000000 0.000000 0.000000 10.000000 
R_weapon_bone 0.000000 0.000000 0.000000 0.000000 0.000000 0.000000 10.000000 
R_front_hand01_01 0.000000 0.000000 0.000000 0.000000 0.000000 0.000000 10.000000 
R_front_hand02_01 0.000000 0.000000 0.000000 0.000000 0.000000 0.000000 10.000000 
R_front_hand03_01 0.000000 0.000000 0.000000 0.000000 0.000000 0.000000 10.000000 
R_front_hand01_02 0.000000 0.000000 0.000000 0.000000 0.000000 0.000000 10.000000 
R_front_hand02_02 0.000000 0.000000 0.000000 0.000000 0.000000 0.000000 10.000000 
R_front_hand03_02 0.000000 0.000000 0.000000 0.000000 0.000000 0.000000 10.000000 
null_rope01_connect 0.000000 0.000000 0.000000 0.000000 0.000000 0.000000 10.000000 
Rope1_Seg01 0.000000 0.000000 0.000000 0.000000 0.000000 0.000000 10.000000 
Rope1_Seg02 0.000000 0.000000 0.000000 0.000000 0.000000 0.000000 10.000000 
Rope1_Seg03 0.000000 0.000000 0.000000 0.000000 0.000000 0.000000 10.000000 
Rope1_Seg04 0.000000 0.000000 0.000000 0.000000 0.000000 0.000000 10.000000 
Rope1_Seg05 0.000000 0.000000 0.000000 0.000000 0.000000 0.000000 10.000000 
Rope1_Seg06 0.000000 0.000000 0.000000 0.000000 0.000000 0.000000 10.000000 
Rope1_Seg07 0.000000 0.000000 0.000000 0.000000 0.000000 0.000000 10.000000 
Rope1_Seg09 0.000000 0.000000 0.000000 0.000000 0.000000 0.000000 10.000000 
L_mid_hand01 0.000000 0.000000 0.000000 0.000000 0.000000 0.000000 10.000000 
L_mid_hand02 0.000000 0.000000 0.000000 0.000000 0.000000 0.000000 10.000000 
L_mid_hand03 0.000000 0.000000 0.000000 0.000000 0.000000 0.000000 10.000000 
null_rope02_connect 0.000000 0.000000 0.000000 0.000000 0.000000 0.000000 10.000000 
Rope2_Seg01 0.000000 0.000000 0.000000 0.000000 0.000000 0.000000 10.000000 
Rope2_Seg02 0.000000 0.000000 0.000000 0.000000 0.000000 0.000000 10.000000 
Rope2_Seg03 0.000000 0.000000 0.000000 0.000000 0.000000 0.000000 10.000000 
Rope2_Seg04 0.000000 0.000000 0.000000 0.000000 0.000000 0.000000 10.000000 
Rope2_Seg05 0.000000 0.000000 0.000000 0.000000 0.000000 0.000000 10.000000 
Rope2_Seg06 0.000000 0.000000 0.000000 0.000000 0.000000 0.000000 10.000000 
Rope2_Seg07 0.000000 0.000000 0.000000 0.000000 0.000000 0.000000 10.000000 
Rope2_Seg09 0.000000 0.000000 0.000000 0.000000 0.000000 0.000000 10.000000 
R_mid_hand01 0.000000 0.000000 0.000000 0.000000 0.000000 0.000000 10.000000 
R_mid_hand02 0.000000 0.000000 0.000000 0.000000 0.000000 0.000000 10.000000 
R_mid_hand03 0.000000 0.000000 0.000000 0.000000 0.000000 0.000000 10.000000 
spine02 0.000000 0.000000 0.000000 0.000000 0.000000 0.000000 10.000000 
spine03 0.000000 0.000000 0.000000 0.000000 0.000000 0.000000 10.000000 
pelvis 0.000000 0.000000 0.000000 0.000000 0.000000 0.000000 10.000000 
null_rope03_connect 0.000000 0.000000 0.000000 0.000000 0.000000 0.000000 10.000000 
null_rope04_connect 0.000000 0.000000 0.000000 0.000000 0.000000 0.000000 10.000000 
Rope3_Seg01 0.000000 0.000000 0.000000 0.000000 0.000000 0.000000 10.000000 
Rope3_Seg02 0.000000 0.000000 0.000000 0.000000 0.000000 0.000000 10.000000 
Rope3_Seg03 0.000000 0.000000 0.000000 0.000000 0.000000 0.000000 10.000000 
Rope3_Seg04 0.000000 0.000000 0.000000 0.000000 0.000000 0.000000 10.000000 
Rope3_Seg05 0.000000 0.000000 0.000000 0.000000 0.000000 0.000000 10.000000 
Rope3_Seg06 0.000000 0.000000 0.000000 0.000000 0.000000 0.000000 10.000000 
Rope3_Seg07 0.000000 0.000000 0.000000 0.000000 0.000000 0.000000 10.000000 
Rope3_Seg08 0.000000 0.000000 0.000000 0.000000 0.000000 0.000000 10.000000 
Rope3_Seg09 0.000000 0.000000 0.000000 0.000000 0.000000 0.000000 10.000000 
R_rear_hand01 0.000000 0.000000 0.000000 0.000000 0.000000 0.000000 10.000000 
R_rear_hand02 0.000000 0.000000 0.000000 0.000000 0.000000 0.000000 10.000000 
R_rear_hand03 0.000000 0.000000 0.000000 0.000000 0.000000 0.000000 10.000000 
Rope4_Seg01 0.000000 0.000000 0.000000 0.000000 0.000000 0.000000 10.000000 
Rope4_Seg02 0.000000 0.000000 0.000000 0.000000 0.000000 0.000000 10.000000 
Rope4_Seg03 0.000000 0.000000 0.000000 0.000000 0.000000 0.000000 10.000000 
Rope4_Seg04 0.000000 0.000000 0.000000 0.000000 0.000000 0.000000 10.000000 
Rope4_Seg05 0.000000 0.000000 0.000000 0.000000 0.000000 0.000000 10.000000 
Rope4_Seg06 0.000000 0.000000 0.000000 0.000000 0.000000 0.000000 10.000000 
Rope4_Seg07 0.000000 0.000000 0.000000 0.000000 0.000000 0.000000 10.000000 
Rope4_Seg08 0.000000 0.000000 0.000000 0.000000 0.000000 0.000000 10.000000 
Rope4_Seg09 0.000000 0.000000 0.000000 0.000000 0.000000 0.000000 10.000000 
L_rear_hand01 0.000000 0.000000 0.000000 0.000000 0.000000 0.000000 10.000000 
L_rear_hand02 0.000000 0.000000 0.000000 0.000000 0.000000 0.000000 10.000000 
L_rear_hand03 0.000000 0.000000 0.000000 0.000000 0.000000 0.000000 10.000000 
#Beginning of Data. Separated by tabs
#Fr	Tx	Ty	Tz	Rx	Ry	Rz	SF
[MASTER]
18 0.000000 0.000000 0.000000 0.001660 0.001660 0.001660 0.000000
19 0.000000 0.000000 0.000000 0.001660 0.001660 0.001660 0.000000
[root]
18 -33.437485 15.352877 1394.742310 -91.728897 -11.584496 -89.471619 1395.227417
19 -35.755596 18.108044 1400.611938 -91.728889 -11.584497 -89.471619 1401.185303
[chest]
18 -84.512650 -34.090519 0.000000 -2.170494 -0.006436 168.239609 91.129311
19 -84.512650 -34.090519 0.000000 -2.170494 -0.006436 168.239609 91.129311
[L_mid_tent01]
18 27.299511 22.177458 -249.918259 -20.661390 12.026041 12.983019 252.381134
19 27.299511 22.177458 -249.918259 -20.661392 12.026043 12.983022 252.381134
[R_mid_tent01]
18 23.228794 24.509907 226.238495 -165.192200 -17.956036 24.056787 228.744751
19 23.228794 24.509907 226.238495 -165.192200 -17.956036 24.056787 228.744751
[spine01]
18 -0.361383 -0.195265 0.000000 -0.000001 -0.000007 22.052340 0.410763
19 -0.361383 -0.195265 0.000000 -0.000001 -0.000007 22.052340 0.410763
[Bip01_Neck]
18 165.484543 71.581718 0.000119 175.896118 1.177290 24.871183 180.302734
19 165.484543 71.581718 0.000119 175.896118 1.177290 24.871183 180.302734
[L_humerus]
18 -13.983130 -135.272980 -120.471481 -5.480129 68.873367 84.573456 181.680161
19 -13.983130 -135.272980 -120.471481 -5.480129 68.873367 84.573456 181.680161
[R_humerus]
18 -13.983309 -135.273102 125.287651 27.897165 -69.888802 67.752319 184.909012
19 -13.983309 -135.273102 125.287651 27.897165 -69.888802 67.752319 184.909012
[weapon_bone]
18 235.964890 -300.705902 0.000000 0.000000 -89.951546 -128.212341 382.234833
19 235.964890 -300.705902 0.000000 0.000000 -89.951546 -128.212341 382.234833
[Bip01_Head]
18 193.865707 99.525291 7.890739 1.727521 4.534425 -43.429157 218.062973
19 193.865707 99.525291 7.890739 1.727521 4.534425 -43.429157 218.062973
[eye_left_bone]
18 -24.626970 125.451866 -64.772606 0.000000 -90.000000 -99.840431 143.318359
19 -24.626970 125.451866 -64.772606 0.000000 -90.000000 -99.840431 143.318359
[eye_right_bone]
18 -24.626970 125.451866 64.327362 0.000000 -89.965736 80.156380 143.117676
19 -24.626970 125.451866 64.327362 0.000000 -89.965736 80.156380 143.117676
[L_forearm]
18 322.776093 0.000000 -0.000119 0.000396 -0.002314 -109.419975 322.776093
19 322.776093 0.000000 -0.000119 0.000396 -0.002314 -109.419975 322.776093
[L_front_hand]
18 241.149185 -0.042021 -3.300071 -179.659958 -2.242151 -0.019832 241.171753
19 241.149185 -0.042021 -3.300071 -179.659958 -2.242151 -0.019832 241.171753
[L_weapon_bone]
18 156.183838 0.000000 0.000000 0.000014 0.000007 0.000001 156.183838
19 156.183838 0.000000 0.000000 0.000014 0.000007 0.000001 156.183838
[L_front_hand01_01]
18 86.095154 20.947098 -0.655860 -0.366594 -0.477154 75.385574 88.609184
19 86.095154 20.947098 -0.655860 -0.366594 -0.477154 75.385574 88.609184
[L_front_hand02_01]
18 86.935165 -11.437475 24.513514 154.399796 -59.883835 -61.369587 91.046425
19 86.935165 -11.437475 24.513514 154.399796 -59.883835 -61.369587 91.046425
[L_front_hand03_01]
18 86.637497 -14.123976 -20.424902 -153.913849 58.118122 -62.702866 90.126129
19 86.637497 -14.123976 -20.424902 -153.913849 58.118122 -62.702866 90.126129
[L_front_hand01_02]
18 71.020905 -0.000179 0.000030 0.000334 -0.002323 -106.379684 71.020905
19 71.020905 -0.000179 0.000030 0.000334 -0.002323 -106.379684 71.020905
[L_front_hand02_02]
18 71.020927 -0.000119 0.000060 0.000334 -0.002323 -106.379684 71.020927
19 71.020927 -0.000119 0.000060 0.000334 -0.002323 -106.379684 71.020927
[L_front_hand03_02]
18 71.020905 -0.000060 0.000060 0.000334 -0.002323 -106.379684 71.020905
19 71.020905 -0.000060 0.000060 0.000334 -0.002323 -106.379684 71.020905
[R_forearm]
18 322.776428 -0.000060 0.000030 0.202103 0.065158 -108.062805 322.776428
19 322.776428 -0.000060 0.000030 0.202103 0.065158 -108.062805 322.776428
[R_front_hand]
18 238.847015 -0.006795 2.210259 -0.270529 1.703932 2.322530 238.857239
19 238.847015 -0.006795 2.210259 -0.270529 1.703932 2.322530 238.857239
[R_weapon_bone]
18 155.664093 0.002503 -0.000030 0.003487 0.001180 -90.988930 155.664078
19 155.664093 0.002503 -0.000030 0.003487 0.001180 -90.988930 155.664078
[R_front_hand01_01]
18 87.624611 14.231146 22.918642 -154.633499 -59.950619 61.746044 91.683487
19 87.624611 14.231146 22.918642 -154.633514 -59.950634 61.746063 91.683487
[R_front_hand02_01]
18 89.356956 14.367283 -19.491137 154.602661 58.302849 63.744389 92.579636
19 89.356956 14.367283 -19.491137 154.602661 58.302849 63.744389 92.579636
[R_front_hand03_01]
18 87.286232 -22.307278 -0.143439 0.162155 -0.423168 -75.767921 90.091743
19 87.286232 -22.307278 -0.143439 0.162155 -0.423168 -75.767921 90.091743
[R_front_hand01_02]
18 71.020905 0.000060 0.000119 0.002323 -0.000334 106.381714 71.020905
19 71.020905 0.000060 0.000119 0.002323 -0.000334 106.381714 71.020905
[R_front_hand02_02]
18 71.020844 -0.000030 -0.000119 0.002323 -0.000334 106.381714 71.020836
19 71.020844 -0.000030 -0.000119 0.002323 -0.000334 106.381714 71.020836
[R_front_hand03_02]
18 71.020905 0.000000 0.000030 0.002323 -0.000334 106.381714 71.020905
19 71.020905 0.000000 0.000030 0.002323 -0.000334 106.381714 71.020905
[null_rope01_connect]
18 328.732483 0.000000 -0.000238 -154.483337 -64.791321 -118.914307 328.732483
19 328.732483 0.000000 -0.000238 -154.483337 -64.791321 -118.914307 328.732483
[Rope1_Seg01]
18 -0.000038 -0.000114 0.000106 71.206604 0.946832 -130.779633 0.000161
19 -0.000038 -0.000114 0.000107 71.139633 1.516592 -130.499939 0.000161
[Rope1_Seg02]
18 139.999863 -0.000179 0.000000 -8.749182 4.330562 1.005478 139.999863
19 139.999863 -0.000179 0.000000 -8.146974 3.939893 0.911688 139.999863
[Rope1_Seg03]
18 139.999924 0.000060 -0.000060 -10.803483 4.529300 1.686210 139.999924
19 139.999924 0.000060 -0.000060 -9.798735 4.076140 1.425385 139.999924
[Rope1_Seg04]
18 139.999924 -0.000060 -0.000119 -9.853200 3.869076 1.490942 139.999924
19 139.999924 -0.000060 -0.000119 -8.266206 3.386204 0.922695 139.999924
[Rope1_Seg05]
18 139.999832 0.000119 -0.000060 -27.616560 8.589087 10.802740 139.999832
19 139.999832 0.000119 -0.000060 -27.818367 8.426967 10.014296 139.999832
[Rope1_Seg06]
18 139.999954 0.000119 -0.000060 -9.621499 1.022768 7.923055 139.999954
19 139.999954 0.000119 -0.000060 -10.141003 1.149177 7.761072 139.999954
[Rope1_Seg07]
18 139.999985 0.000060 0.000000 -3.289560 -0.011923 3.490689 139.999985
19 139.999985 0.000060 0.000000 -3.446636 0.029901 3.405431 139.999985
[Rope1_Seg09]
18 121.602913 0.000119 -0.000089 -89.793175 -1.359789 0.847147 121.602913
19 121.602913 0.000119 -0.000089 -89.793175 -1.359789 0.847147 121.602913
[L_mid_hand01]
18 103.859421 1.038730 8.195221 106.855484 -31.239275 -9.461397 104.187431
19 103.859421 1.038730 8.195221 106.855484 -31.239275 -9.461397 104.187431
[L_mid_hand02]
18 105.572853 -4.139662 -10.864139 -142.331345 25.752670 -28.774628 106.211075
19 105.572853 -4.139662 -10.864139 -142.331345 25.752670 -28.774628 106.211075
[L_mid_hand03]
18 104.641464 17.579376 -3.913581 -16.122810 9.734291 34.223598 106.179977
19 104.641464 17.579376 -3.913581 -16.122810 9.734291 34.223598 106.179977
[null_rope02_connect]
18 328.732849 0.000179 -0.000119 -140.208786 68.099197 -35.150627 328.732849
19 328.732849 0.000179 -0.000119 -140.208801 68.099228 -35.150650 328.732849
[Rope2_Seg01]
18 0.000095 0.000153 0.000043 -8.375549 7.360442 -34.801414 0.000185
19 0.000095 0.000153 0.000046 -4.475978 7.971549 -36.283241 0.000186
[Rope2_Seg02]
18 139.999741 -0.000060 -0.000119 47.093674 -0.264888 -11.206681 139.999756
19 139.999741 -0.000060 -0.000119 45.694527 -1.162175 -10.165275 139.999756
[Rope2_Seg03]
18 140.000107 0.000030 0.000000 18.531969 -5.225809 -3.991970 140.000107
19 140.000107 0.000030 0.000000 13.507567 -3.920547 -2.515948 140.000107
[Rope2_Seg04]
18 139.999802 0.000000 -0.000060 11.325802 -6.131987 -2.343985 139.999802
19 139.999802 0.000000 -0.000060 10.182447 -4.690635 -1.917271 139.999802
[Rope2_Seg05]
18 139.999985 -0.000060 0.000119 20.185637 -21.288300 -7.013341 139.999985
19 139.999985 -0.000060 0.000119 22.080421 -20.304594 -7.223733 139.999985
[Rope2_Seg06]
18 139.999893 -0.000030 -0.000119 4.981003 -17.153662 0.291283 139.999893
19 139.999893 -0.000030 -0.000119 5.518461 -17.881580 0.526258 139.999893
[Rope2_Seg07]
18 139.999893 0.000060 -0.000060 1.038942 -7.236871 0.837922 139.999893
19 139.999893 0.000060 -0.000060 1.114884 -7.496999 1.014111 139.999893
[Rope2_Seg09]
18 121.338966 0.000089 -0.000060 33.793236 -1.359788 -0.847141 121.338966
19 121.338966 0.000089 -0.000060 33.793236 -1.359788 -0.847141 121.338966
[R_mid_hand01]
18 104.680779 11.144459 -10.335981 -41.523792 25.424656 28.595957 105.778534
19 104.680779 11.144459 -10.335981 -41.523792 25.424656 28.595957 105.778534
[R_mid_hand02]
18 104.070427 2.443552 8.231699 72.847389 -32.746803 10.013901 104.424065
19 104.070427 2.443552 8.231699 72.847389 -32.746803 10.013901 104.424065
[R_mid_hand03]
18 106.028137 -11.221827 -5.996406 -167.901306 10.259192 -37.009720 106.788818
19 106.028137 -11.221827 -5.996406 -167.901306 10.259192 -37.009720 106.788818
[spine02]
18 129.756927 0.001550 0.000119 0.360061 -4.044797 -12.915058 129.756927
19 129.756927 0.001550 0.000119 0.360061 -4.044797 -12.915058 129.756927
[spine03]
18 78.613846 0.087372 -4.898873 1.896495 3.831288 16.473045 78.766380
19 78.613846 0.087372 -4.898873 1.896495 3.831288 16.473045 78.766380
[pelvis]
18 169.435242 0.051022 0.000000 -0.060465 -0.180225 14.087930 169.435257
19 169.435242 0.051022 0.000000 -0.060465 -0.180225 14.087930 169.435257
[null_rope03_connect]
18 -1.257226 -2.466202 137.391083 156.329987 -89.381348 -94.430771 137.418976
19 -1.257226 -2.466202 137.391083 156.329987 -89.381348 -94.430771 137.418976
[null_rope04_connect]
18 -1.259640 -2.480268 -137.844437 156.329987 -89.381348 -94.430771 137.872513
19 -1.259640 -2.480268 -137.844437 156.329987 -89.381348 -94.430771 137.872513
[Rope3_Seg01]
18 0.000010 0.000038 -0.000114 -144.968933 31.571375 -102.316216 0.000121
19 0.000010 0.000038 -0.000114 -144.847229 30.114025 -103.750946 0.000121
[Rope3_Seg02]
18 139.999924 -0.000119 0.000060 0.762759 -5.198305 -9.196912 139.999924
19 139.999924 -0.000119 0.000060 0.505554 -6.162831 -9.247881 139.999924
[Rope3_Seg03]
18 139.999924 -0.000119 0.000119 0.773737 -6.068758 -10.593698 139.999924
19 139.999924 -0.000119 0.000119 0.652439 -6.900899 -10.352513 139.999924
[Rope3_Seg04]
18 139.999924 0.000119 0.000000 1.598420 -10.768734 -16.976675 139.999924
19 139.999924 0.000119 0.000000 1.549458 -11.102093 -15.470570 139.999924
[Rope3_Seg05]
18 139.999924 -0.000238 0.000060 0.172829 -4.056976 -7.482438 139.999924
19 139.999924 -0.000238 0.000060 0.319544 -4.043079 -6.471199 139.999924
[Rope3_Seg06]
18 139.999893 -0.000119 -0.000060 0.301555 7.506321 7.664823 139.999893
19 139.999893 -0.000119 -0.000060 0.159194 6.330479 5.803276 139.999893
[Rope3_Seg07]
18 139.999771 0.000060 -0.000119 1.348853 10.150514 11.256726 139.999771
19 139.999771 0.000060 -0.000119 0.911322 8.576499 8.534021 139.999771
[Rope3_Seg08]
18 139.999985 -0.000060 0.000000 0.892180 4.822607 4.673900 139.999985
19 139.999985 -0.000060 0.000000 0.715216 3.895202 3.366782 139.999985
[Rope3_Seg09]
18 90.185997 -0.000179 -0.000060 89.793228 -1.359877 -0.847183 90.185997
19 90.185997 -0.000179 -0.000060 89.793228 -1.359877 -0.847183 90.185997
[R_rear_hand01]
18 103.366196 -6.073594 -10.757982 -161.551193 16.666374 -30.088671 104.101845
19 103.366196 -6.073594 -10.757982 -161.551193 16.666374 -30.088671 104.101845
[R_rear_hand02]
18 100.509819 12.039542 -7.992327 -34.280552 19.289745 28.875523 101.543350
19 100.509819 12.039542 -7.992327 -34.280552 19.289745 28.875523 101.543350
[R_rear_hand03]
18 101.539970 5.215704 5.435467 83.366440 -30.933914 7.284830 101.819031
19 101.539970 5.215704 5.435467 83.366440 -30.933914 7.284830 101.819031
[Rope4_Seg01]
18 0.000010 0.000038 -0.000114 36.807190 18.701263 -130.885162 0.000121
19 0.000010 0.000038 -0.000114 36.551876 20.005291 -130.535355 0.000121
[Rope4_Seg02]
18 139.999985 0.000060 0.000119 1.113010 8.346256 6.781430 139.999985
19 139.999985 0.000060 0.000119 1.092509 7.276180 6.532086 139.999985
[Rope4_Seg03]
18 139.999924 0.000000 -0.000238 1.409560 13.398173 10.804982 139.999924
19 139.999924 0.000000 -0.000238 1.306478 11.878489 10.544833 139.999924
[Rope4_Seg04]
18 139.999985 0.000000 0.000119 0.982844 27.352512 28.465431 139.999985
19 139.999985 0.000000 0.000119 0.671041 25.497507 28.691891 139.999985
[Rope4_Seg05]
18 139.999802 -0.000060 -0.000119 -2.424438 9.521448 7.529429 139.999802
19 139.999802 -0.000060 -0.000119 -3.149890 10.145198 8.920821 139.999802
[Rope4_Seg06]
18 139.999924 0.000000 0.000060 17.726820 -12.221770 -27.728775 139.999924
19 139.999924 0.000000 0.000060 17.916817 -10.799721 -28.535933 139.999924
[Rope4_Seg07]
18 139.999802 0.000000 0.000000 4.901477 -13.235221 -16.369724 139.999802
19 139.999802 0.000000 0.000000 4.322573 -10.607763 -14.636985 139.999802
[Rope4_Seg08]
18 139.999924 0.000000 0.000119 -0.905690 -4.508232 -5.394508 139.999924
19 139.999924 0.000000 0.000119 -0.826970 -3.823581 -5.148695 139.999924
[Rope4_Seg09]
18 90.185791 0.000060 0.000060 -135.617828 2.228885 0.850567 90.185791
19 90.185791 0.000060 0.000060 -135.617828 2.228885 0.850567 90.185791
[L_rear_hand01]
18 101.696655 -8.392275 -7.654577 -34.454281 -18.946800 151.655121 102.329041
19 101.696655 -8.392275 -7.654577 -34.454281 -18.946800 151.655121 102.329041
[L_rear_hand02]
18 102.726799 -1.568258 5.773216 83.407906 30.330435 172.796509 102.900848
19 102.726799 -1.568258 5.773216 83.407906 30.330435 172.796509 102.900848
[L_rear_hand03]
18 104.552910 9.721220 -10.420293 -161.379868 -16.473232 -150.512238 105.519653
19 104.552910 9.721220 -10.420293 -161.379868 -16.473232 -150.512238 105.519653
